<?xml version="1.0" encoding="utf-8"?>
<!-- Generator: Adobe Illustrator 21.0.2, SVG Export Plug-In . SVG Version: 6.00 Build 0)  -->
<svg version="1.1" xmlns="http://www.w3.org/2000/svg" xmlns:xlink="http://www.w3.org/1999/xlink" x="0px" y="0px"
	 viewBox="0 0 1024 600" style="enable-background:new 0 0 1024 600;" xml:space="preserve">
<style type="text/css">
	.st0{display:none;}
	.st1{display:inline;fill:url(#SVGID_1_);}
	.st2{fill:#141414;}
</style>
<g id="BG" class="st0">
	<radialGradient id="SVGID_1_" cx="512" cy="300" r="778.8453" gradientUnits="userSpaceOnUse">
		<stop  offset="0" style="stop-color:#FBB03B"/>
		<stop  offset="1" style="stop-color:#F7931E"/>
	</radialGradient>
	<rect x="-448" y="-240" class="st1" width="1920" height="1080"/>
</g>
<g id="Lines">
	<rect x="32.8" y="221.1" class="st2" width="958.5" height="5.4"/>
	<g>
		<path class="st2" d="M451.4,342.2c0,11.5,4.5,18.5,14.9,18.5c10.2,0,14.7-7,14.7-18.5v-98.1h13.3v97.3c0,19.4-8.9,32.4-28.5,32.4
			c-19.4,0-28.3-13-28.3-32.4v-97.3h14V342.2z"/>
		<path class="st2" d="M520.8,372.4h-12.7V244.1h18l29.4,92.7v-92.7H568v128.3h-14.7l-32.5-103.7V372.4z"/>
		<path class="st2" d="M612.4,244.1c19.8,0,28.9,12.1,28.9,31.9v64.7c0,19.6-9.1,31.7-28.9,31.7h-29.8V244.1H612.4z M612.2,359.4
			c10.2,0,15.1-6.4,15.1-18.1v-66c0-11.7-4.9-18.1-15.3-18.1h-15.3v102.3H612.2z"/>
		<path class="st2" d="M699.8,300.9v12.8h-31.1v45.6h38.2v13h-52.3V244.1h52.3v13h-38.2v43.8H699.8z"/>
		<path class="st2" d="M748.3,244.1c20,0,28.3,10.3,28.3,29.3v10.4c0,14.1-4.9,22.9-15.8,26.4c11.6,3.5,16,13,16,26.8v20
			c0,5.7,0.2,11,2.5,15.4H765c-1.6-3.7-2.4-7-2.4-15.6v-20.2c0-14.5-6.7-19.1-18.5-19.1h-10v54.8H720V244.1H748.3z M744.7,304.6
			c11.3,0,18-3.7,18-17.6v-12.3c0-11.5-4.2-17.6-14.7-17.6h-13.8v47.5H744.7z"/>
		<path class="st2" d="M836.8,300.9v12.8h-31.1v45.6h38.2v13h-52.3V244.1h52.3v13h-38.2v43.8H836.8z"/>
		<path class="st2" d="M886.8,244.1c19.8,0,28.9,12.1,28.9,31.9v64.7c0,19.6-9.1,31.7-28.9,31.7H857V244.1H886.8z M886.6,359.4
			c10.2,0,15.1-6.4,15.1-18.1v-66c0-11.7-4.9-18.1-15.3-18.1h-15.3v102.3H886.6z"/>
	</g>
	<g>
		<path class="st2" d="M483.9,27.1c30.6,0,44.6,18.5,44.6,48.8v99c0,30-14,48.5-44.6,48.5h-46V27.1H483.9z M483.6,203.6
			c15.7,0,23.3-9.8,23.3-27.8v-101c0-18-7.6-27.8-23.6-27.8h-23.6v156.6H483.6z"/>
		<path class="st2" d="M547.3,74.5c0-30,14.9-49.4,44.9-49.4c30.3,0,45.2,19.4,45.2,49.4v101.6c0,29.7-14.9,49.4-45.2,49.4
			c-30,0-44.9-19.6-44.9-49.4V74.5z M568.9,177.2c0,18,7.6,28.3,23.3,28.3c16,0,23.3-10.4,23.3-28.3V73.4c0-17.7-7.3-28.3-23.3-28.3
			c-15.7,0-23.3,10.7-23.3,28.3V177.2z"/>
		<path class="st2" d="M710.3,223.5h-30L653.4,27.1h21.3l23,167.2l21.9-166.9h21.6l21.6,167.2L785,27.1H804l-26.7,196.4h-28.9
			L729.7,90.2L710.3,223.5z"/>
		<path class="st2" d="M841.1,223.5h-19.6V27.1h27.8l45.5,142v-142H914v196.4h-22.7L841.1,64.7V223.5z"/>
	</g>
	<g>
		<path class="st2" d="M254.5,152.7c-4.5,11.6-8.5,47.8-8.9,72.8h-7.1h-7.1c-0.4-25-4.4-61.2-8.9-72.8c6.6,3.6,12.7,8.5,16,14.9
			C241.8,161.2,247.9,156.3,254.5,152.7z"/>
	</g>
	<circle class="st2" cx="213.8" cy="116.8" r="3.7"/>
	<circle class="st2" cx="260.2" cy="120.7" r="3.7"/>
	<path class="st2" d="M280.8,146.4c0,0-0.1-0.1-0.1-0.1c0,0,0,0,0,0c-1.5-1.3-21.3-8.7-23.4-9.5c-2.8-1-5.3-2.6-6.8-6.1
		c-1.1-2.7-1.6-6-1.3-9.4c0-0.2,0-0.4,0-0.6c0-0.4,0.1-0.7,0.1-1.1c0-0.1,0-0.3,0-0.4c0.2-1.1,0.4-2.2,0.7-3.2c0-0.1,0-0.1,0.1-0.2
		c0.1-0.4,0.3-0.9,0.4-1.3c0.1-0.1,0.1-0.3,0.2-0.4c0.1-0.3,0.3-0.7,0.4-1c0.1-0.2,0.2-0.4,0.3-0.6c0.1-0.3,0.2-0.5,0.4-0.8
		c0.1-0.2,0.3-0.4,0.4-0.7c0.1-0.2,0.2-0.4,0.3-0.5c0.2-0.3,0.3-0.5,0.5-0.7c0.1-0.1,0.2-0.3,0.3-0.4c0.2-0.3,0.4-0.5,0.6-0.8
		c0.1-0.1,0.1-0.2,0.2-0.2c0.2-0.3,0.5-0.5,0.7-0.8c0,0,0.1-0.1,0.1-0.1c0.3-0.3,0.5-0.5,0.8-0.7c0,0,0.1,0,0.1-0.1
		c0.3-0.2,0.6-0.4,0.9-0.6c0,0,0,0,0,0c0.3-0.2,0.6-0.4,1-0.5c0,0,0,0,0,0c0.3-0.2,0.7-0.3,1-0.4c0,0,0,0,0,0c0.3-0.1,0.7-0.2,1-0.3
		c0,0,0,0,0,0c0.3-0.1,0.7-0.1,1-0.1c0,0,0,0,0.1,0c0.3,0,0.6,0,1,0c0.2,0,0.3,0,0.5,0c4.7,0.7,7.9,6,8.2,12.8
		c0.3-7.2-2.6-13.1-7.2-14.5c4.3-4.6,10.8-7.8,10.7-9.3c-0.1-2-1.2-8-5.4-6.4c-1.2,0.5-2.4,1-3.5,1.5c-7.3,2.6-24.6,6.4-41.1-8.2
		c-2.3-2.1-7-3.2-11.3-3.2c-0.1,0-0.1,0-0.2,0c-0.1,0-0.3,0-0.4,0c-0.3,0-0.6,0-0.9,0c-14.3,0.8-12.8,16.4-5.9,22.7
		c-3.4,8.3-2.7,12.4-2.7,12.4c0.4-4.9,3.9-11.4,3.9-11.4c2.2-3.9,5.1-6.2,8.3-6.1c6.3,0.3,10.9,10.2,10.3,22.5v0
		c-0.4,9-2.9,17-7.4,19.8c-1.2,0.8-20.2,7.8-21.5,8.9c0,0,0,0,0,0c0,0-0.1,0.1-0.1,0.1c-1.8,2.4,5.5,9.2,16.8,3.3c1-0.5,2-1,3-1.5
		c16.3,2.9,22.5,10.9,22.5,10.9s6.2-8,22.5-10.9c1,0.4,2,0.9,3,1.5C275.3,155.5,282.6,148.7,280.8,146.4z M229.7,147
		c-1.8-2-2.4-4.3-1.4-5.2c1-0.9,3.2,0,5,2s2.6,6.4,2.6,6.4S231.5,149,229.7,147z M248.3,147c-1.8,2-6.1,3.2-6.1,3.2s0.8-4.5,2.6-6.4
		s4-2.9,5-2C250.7,142.7,250.1,145,248.3,147z"/>
	<path class="st2" d="M323.4,242.5c16.4,7.4,41.1,12.6,51.3-16.6c0,0-54.4,0-96.9,0c0,0,1.1,12.1,17.3,16.5
		c-1.5,10.7-12.1,80.7-29.5,119.6c-8.2-11.9-14.2-26-15.4-42.6c-3.3-47.5-5-66-4.6-93.4c0-0.1,0-0.3,0-0.4h-7.1h-2h-5
		c0,0.1,0,0.3,0,0.4c0.4,27.4-1.3,45.9-4.6,93.4c-1.2,16.6-7.2,30.7-15.4,42.6c-17.3-38.9-27.9-108.9-29.5-119.6
		c16.2-4.4,17.3-16.5,17.3-16.5c-42.5,0-96.9,0-96.9,0c10.2,29.2,34.9,24.1,51.3,16.6c8.2,1.4,14.9,1.7,20.4,1.2
		c0.6,7.1,7.3,88.7,24.2,133c-12.6,6.2-23.3,15.1-31.2,26c-2.5,1.7-4.9,3.3-7,4.7c-21.9,14.9-27.6,38.2-27.4,41.8
		c0.1,1.3,0.8,1.9,1.6,2.1c4.1-4.9,10.4-10,20.2-14.7c0,0-8.7,4.4-16.8,14.3c0,0,0.1,0,0.1,0c-4,5-6.7,9.6-8.5,13.7
		c-0.8,1.7-1.5,3.5-2.1,5.4c-1.6,5.1-1.6,8.6-1.4,9.7c0.1,0.3,0.2,0.6,0.3,0.8c5.4-8.4,14.1-17.6,28.4-25.9c0,0-26.8,18.7-36.8,52.5
		c-2.3,8-2.9,14.5-1.9,17.7c1.7,5.3,4.1,1.5,4.3,1c6.8-12.6,23.3-33.9,40.2-46.3c10.3,20.8,30,36.7,54.1,43.2
		c-8.6-11.9-22.2-22.6-22.2-22.6c21.8,10.1,28.3,24,28.3,24v0c6.5,12.7,12,29.3,14.1,50.7c3.9-3.4,5.1-16.9,5.2-30.9
		c3.3,4.2,6.4,6.3,8.9,7c0.3-10.7,3.4-19.6,7.6-26.8c0,0,0,0,0,0c0.1-0.2,6.7-13.9,28.3-24c0,0-13.6,10.7-22.2,22.6
		c24.1-6.5,43.8-22.4,54.1-43.2c16.9,12.4,33.4,33.8,40.2,46.3c0.3,0.5,2.6,4.3,4.3-1c1.1-3.2,0.5-9.7-1.9-17.7
		c-10-33.8-36.8-52.5-36.8-52.5c14.3,8.3,23,17.5,28.4,25.9c0.1-0.2,0.3-0.5,0.3-0.8c0.3-1.2,0.2-4.7-1.4-9.7v0
		c-0.6-1.9-1.3-3.7-2.1-5.4c-1.8-4-4.6-8.7-8.5-13.7c0,0,0,0,0.1,0c-8.1-9.8-16.8-14.3-16.8-14.3c9.8,4.6,16.1,9.8,20.2,14.7
		c0.8-0.2,1.5-0.8,1.6-2.1c0.2-3.6-5.5-27-27.4-41.8c-2.1-1.4-4.5-3-7-4.7c-7.9-10.9-18.6-19.8-31.2-26
		c16.9-44.2,23.6-125.9,24.2-133C308.6,244.2,315.3,243.9,323.4,242.5z M153.4,435.4c0,0,0-0.1,0-0.1c0,0,0,0,0,0
		C153.4,435.3,153.4,435.4,153.4,435.4z M323.6,435.3c0,0,0,0.1,0,0.1C323.6,435.4,323.6,435.3,323.6,435.3
		C323.6,435.3,323.6,435.3,323.6,435.3z M234.7,459.5c-9.9,0-12-8.1-12-8.1c7.9,8.1,14.5,2.9,14.5,0c-5.1,0-5.9-8.1,1.6-8.1
		c6.6,0,8.1,5.1,8.1,8.1C246.8,454.4,243.9,459.5,234.7,459.5z M297.6,443.4c0,0,0-0.1-0.1-0.1c-5.4,29-24.6,40-24.6,40
		c22.4-32.3,13.3-61.8,4.9-63.2c-3.2,6.7-14.3,7.5-14.3,7.5c16.5-21.2-3-34.3-3-34.3c1.5,8.3-5.5,12.5-5.5,12.5
		c3.5-19-9.4-22.4-16.5-23.2c-32.3-3.3-60.7,21.2-75.3,52.4c13.1-34.8,41.9-59,75.3-59C271.4,375.9,301.4,402,297.6,443.4z"/>
	<circle class="st2" cx="213.9" cy="116.8" r="3.7"/>
</g>
</svg>
