<?xml version="1.0" encoding="utf-8"?>
<!-- Generator: Adobe Illustrator 22.0.1, SVG Export Plug-In . SVG Version: 6.00 Build 0)  -->
<svg version="1.1" xmlns="http://www.w3.org/2000/svg" xmlns:xlink="http://www.w3.org/1999/xlink" x="0px" y="0px"
	 viewBox="0 0 958.452 589.883" style="enable-background:new 0 0 958.452 589.883;" xml:space="preserve">
<style type="text/css">
	.st0{display:none;}
	.st1{display:inline;fill:url(#SVGID_1_);}
	.st2{fill:#141414;}
</style>
<g id="BG" class="st0">
	<radialGradient id="SVGID_1_" cx="479.226" cy="280.7168" r="778.8453" gradientUnits="userSpaceOnUse">
		<stop  offset="0" style="stop-color:#FBB03B"/>
		<stop  offset="1" style="stop-color:#F7931E"/>
	</radialGradient>
	<rect x="-480.774" y="-259.283" class="st1" width="1920" height="1080"/>
</g>
<g id="Lines">
	<rect y="236.092" class="st2" width="958.452" height="5.414"/>
	<g>
		<path class="st2" d="M418.614,357.188c0,11.547,4.543,18.512,14.901,18.512c10.176,0,14.719-6.965,14.719-18.512v-98.06h13.266
			v97.326c0,19.429-8.904,32.441-28.53,32.441c-19.444,0-28.348-13.013-28.348-32.441v-97.326h13.992V357.188z"/>
		<path class="st2" d="M488.026,387.431h-12.72V259.129h17.99l29.438,92.744v-92.744h12.539v128.302h-14.72l-32.527-103.741V387.431
			z"/>
		<path class="st2" d="M579.609,259.129c19.808,0,28.894,12.097,28.894,31.892v64.701c0,19.612-9.086,31.709-28.894,31.709h-29.802
			V259.129H579.609z M579.427,374.417c10.176,0,15.083-6.415,15.083-18.146v-65.983c0-11.731-4.907-18.146-15.265-18.146h-15.265
			v102.275H579.427z"/>
		<path class="st2" d="M667.012,315.948v12.83h-31.073v45.639h38.16v13.014h-52.334V259.129h52.334v13.013h-38.16v43.806H667.012z"
			/>
		<path class="st2" d="M715.527,259.129c19.988,0,28.348,10.264,28.348,29.326v10.447c0,14.113-4.906,22.911-15.81,26.394
			c11.63,3.482,15.991,13.014,15.991,26.76v19.979c0,5.683,0.182,10.997,2.544,15.396h-14.355
			c-1.636-3.666-2.362-6.965-2.362-15.579v-20.162c0-14.479-6.724-19.063-18.535-19.063h-9.995v54.804h-14.174V259.129H715.527z
			 M711.892,319.614c11.267,0,17.99-3.666,17.99-17.596v-12.28c0-11.548-4.18-17.596-14.72-17.596h-13.811v47.472H711.892z"/>
		<path class="st2" d="M804.021,315.948v12.83h-31.074v45.639h38.161v13.014h-52.335V259.129h52.335v13.013h-38.161v43.806H804.021z
			"/>
		<path class="st2" d="M853.989,259.129c19.807,0,28.893,12.097,28.893,31.892v64.701c0,19.612-9.086,31.709-28.893,31.709h-29.802
			V259.129H853.989z M853.807,374.417c10.176,0,15.082-6.415,15.082-18.146v-65.983c0-11.731-4.906-18.146-15.264-18.146h-15.265
			v102.275H853.807z"/>
	</g>
	<g>
		<path class="st2" d="M451.133,42.083c30.581,0,44.609,18.518,44.609,48.818v99.039c0,30.021-14.028,48.538-44.609,48.538h-46.012
			V42.083H451.133z M450.853,218.558c15.711,0,23.287-9.82,23.287-27.776V89.779c0-17.956-7.575-27.775-23.567-27.775h-23.567
			v156.554H450.853z"/>
		<path class="st2" d="M514.539,89.499c0-30.021,14.87-49.379,44.891-49.379c30.301,0,45.171,19.359,45.171,49.379v101.564
			c0,29.74-14.87,49.379-45.171,49.379c-30.021,0-44.891-19.639-44.891-49.379V89.499z M536.143,192.185
			c0,17.956,7.575,28.337,23.287,28.337c15.992,0,23.286-10.381,23.286-28.337V88.376c0-17.675-7.294-28.337-23.286-28.337
			c-15.712,0-23.287,10.662-23.287,28.337V192.185z"/>
		<path class="st2" d="M677.545,238.478h-30.02L620.591,42.083h21.323l23.006,167.216l21.884-166.935h21.604l21.604,167.216
			l22.165-167.497h19.078l-26.653,196.395h-28.898L696.905,105.21L677.545,238.478z"/>
		<path class="st2" d="M808.287,238.478h-19.639V42.083h27.775l45.451,141.965V42.083h19.359v196.395h-22.726L808.287,79.679
			V238.478z"/>
	</g>
	<g>
		<path class="st2" d="M221.716,167.71c-4.493,11.597-8.526,47.777-8.905,72.797h-7.061h-7.061
			c-0.378-25.019-4.412-61.2-8.905-72.797c6.585,3.624,12.691,8.477,15.966,14.854C209.025,176.187,215.131,171.333,221.716,167.71z
			"/>
	</g>
	<path class="st2" d="M184.695,131.795c0-2.041-1.655-3.696-3.696-3.696c-2.041,0-3.696,1.655-3.696,3.696
		c0,2.041,1.655,3.696,3.696,3.696C183.041,135.49,184.695,133.836,184.695,131.795z"/>
	<path class="st2" d="M231.122,135.735c0-2.041-1.655-3.696-3.696-3.696c-2.041,0-3.696,1.655-3.696,3.696
		c0,2.041,1.655,3.696,3.696,3.696C229.467,139.431,231.122,137.776,231.122,135.735z"/>
	<path class="st2" d="M248.059,161.37c-0.027-0.033-0.063-0.068-0.104-0.103c-0.006-0.005-0.013-0.01-0.02-0.015
		c-1.544-1.275-21.289-8.714-23.356-9.473c-2.768-1.016-5.328-2.629-6.795-6.139c-1.133-2.709-1.588-5.99-1.346-9.406
		c0.015-0.205,0.023-0.408,0.042-0.614c0.035-0.367,0.085-0.737,0.137-1.106c0.018-0.126,0.028-0.25,0.047-0.377
		c0.173-1.12,0.412-2.199,0.709-3.228c0.022-0.077,0.049-0.148,0.072-0.224c0.129-0.43,0.263-0.855,0.411-1.266
		c0.051-0.141,0.11-0.274,0.163-0.414c0.128-0.335,0.256-0.669,0.397-0.99c0.084-0.192,0.178-0.373,0.266-0.559
		c0.12-0.253,0.237-0.509,0.365-0.753c0.121-0.231,0.251-0.448,0.379-0.669c0.105-0.182,0.206-0.37,0.315-0.546
		c0.159-0.256,0.327-0.498,0.495-0.739c0.086-0.125,0.17-0.255,0.258-0.376c0.197-0.269,0.403-0.522,0.611-0.771
		c0.065-0.079,0.128-0.162,0.195-0.239c0.234-0.269,0.475-0.521,0.72-0.764c0.045-0.045,0.089-0.094,0.135-0.138
		c0.266-0.256,0.539-0.495,0.816-0.719c0.028-0.023,0.055-0.048,0.083-0.07c0.292-0.232,0.591-0.445,0.894-0.64
		c0.015-0.01,0.03-0.021,0.045-0.031c0.313-0.199,0.631-0.377,0.953-0.534c0.008-0.004,0.015-0.008,0.023-0.012
		c0.325-0.158,0.655-0.293,0.989-0.407c0.007-0.002,0.014-0.005,0.021-0.008c0.33-0.112,0.664-0.2,1.001-0.267
		c0.013-0.003,0.025-0.006,0.038-0.008c0.328-0.063,0.658-0.102,0.99-0.121c0.025-0.001,0.049-0.004,0.074-0.005
		c0.317-0.015,0.637-0.006,0.957,0.022c0.162,0.014,0.324,0.013,0.486,0.038c4.73,0.73,7.92,5.99,8.2,12.77
		c0.298-7.19-2.572-13.109-7.161-14.526c4.277-4.58,10.796-7.773,10.701-9.289c-0.124-1.98-1.237-8.043-5.408-6.435
		c-1.241,0.479-2.413,0.977-3.527,1.492c-7.259,2.605-24.597,6.415-41.084-8.174c-2.331-2.063-7.04-3.21-11.308-3.221
		c-0.059-0.001-0.113-0.006-0.172-0.007c-0.138-0.001-0.261,0.013-0.396,0.015c-0.288,0.006-0.572,0.016-0.854,0.033
		c-14.32,0.774-12.784,16.353-5.871,22.732c-3.437,8.346-2.723,12.381-2.723,12.381c0.38-4.917,3.948-11.381,3.948-11.381
		c2.2-3.915,5.134-6.239,8.315-6.097c6.319,0.272,10.851,10.172,10.317,22.537v0c-0.391,9.05-2.892,17.042-7.396,19.81
		c-1.23,0.756-20.216,7.824-21.539,8.916c-0.007,0.005-0.014,0.01-0.02,0.015c-0.042,0.035-0.077,0.07-0.104,0.103
		c-1.804,2.356,5.549,9.152,16.786,3.336c1.018-0.527,2.035-1.01,3.041-1.456c16.263,2.875,22.482,10.86,22.482,10.86
		s6.218-7.985,22.482-10.86c1.006,0.445,2.022,0.928,3.041,1.456C242.509,170.522,249.862,163.726,248.059,161.37z M196.966,162.005
		c-1.779-1.978-2.419-4.302-1.43-5.192c0.989-0.889,3.233-0.007,5.011,1.971s2.557,6.445,2.557,6.445
		S198.745,163.983,196.966,162.005z M215.534,162.005c-1.779,1.978-6.139,3.225-6.139,3.225s0.778-4.467,2.557-6.445
		s4.022-2.861,5.011-1.971C217.953,157.703,217.312,160.027,215.534,162.005z"/>
	<path class="st2" d="M290.672,257.55c16.372,7.447,41.061,12.609,51.307-16.619c0,0-54.446,0-96.946,0
		c0,0,1.093,12.125,17.315,16.493c-1.549,10.699-12.141,80.706-29.487,119.559c-8.221-11.885-14.248-25.978-15.418-42.627
		c-3.341-47.517-5.012-66.016-4.64-93.425c0.002-0.139,0.006-0.285,0.008-0.425h-7.061h-2.043h-5.018
		c0.002,0.14,0.006,0.285,0.008,0.425c0.371,27.409-1.299,45.908-4.64,93.425c-1.171,16.648-7.198,30.741-15.418,42.627
		c-17.346-38.852-27.938-108.859-29.487-119.559c16.223-4.369,17.315-16.493,17.315-16.493c-42.5,0-96.946,0-96.946,0
		c10.246,29.228,34.935,24.065,51.307,16.619c8.154,1.387,14.864,1.675,20.369,1.217c0.562,7.095,7.322,88.74,24.208,132.984
		c-12.587,6.174-23.311,15.142-31.193,26.012c-2.533,1.711-4.9,3.279-7.028,4.708c-21.902,14.856-27.604,38.229-27.359,41.815
		c0.091,1.29,0.774,1.854,1.608,2.055c4.068-4.86,10.382-10.032,20.212-14.677c0,0-8.729,4.439-16.827,14.26
		c0.043-0.016,0.07-0.027,0.07-0.027c-3.979,5.007-6.696,9.638-8.535,13.672c-0.766,1.724-1.476,3.525-2.099,5.423
		c-1.597,5.071-1.635,8.566-1.357,9.734c0.082,0.34,0.201,0.607,0.341,0.83c5.365-8.387,14.12-17.622,28.407-25.917
		c0,0-26.776,18.741-36.795,52.529c-2.336,7.992-2.909,14.478-1.852,17.724c1.732,5.321,4.052,1.534,4.346,0.992
		c6.807-12.568,23.28-33.886,40.185-46.336c10.292,20.753,30.017,36.689,54.132,43.163c-8.595-11.911-22.191-22.568-22.191-22.568
		c21.779,10.147,28.348,24.013,28.348,24.013v0.001c6.497,12.695,11.966,29.292,14.136,50.727c3.887-3.41,5.067-16.917,5.18-30.872
		c3.255,4.201,6.405,6.26,8.885,6.99c0.303-10.683,3.361-19.563,7.635-26.849c0.01-0.002,0.02-0.004,0.031-0.006
		c0.106-0.222,6.741-13.938,28.343-24.002c0,0-13.597,10.657-22.191,22.569c24.116-6.474,43.841-22.411,54.133-43.164
		c16.905,12.45,33.378,33.768,40.185,46.336c0.294,0.542,2.613,4.328,4.346-0.992c1.057-3.246,0.484-9.732-1.852-17.724
		c-10.018-33.788-36.795-52.529-36.795-52.529c14.286,8.295,23.042,17.531,28.407,25.917c0.14-0.223,0.259-0.49,0.341-0.83
		c0.279-1.168,0.241-4.663-1.356-9.733v0c-0.623-1.899-1.333-3.7-2.099-5.424c-1.839-4.035-4.556-8.665-8.535-13.672
		c0,0,0.027,0.011,0.07,0.027c-8.098-9.821-16.827-14.26-16.827-14.26c9.83,4.645,16.145,9.817,20.212,14.677
		c0.834-0.202,1.517-0.766,1.608-2.055c0.245-3.586-5.457-26.958-27.359-41.815c-2.128-1.429-4.495-2.997-7.028-4.708
		c-7.882-10.87-18.605-19.838-31.193-26.012c16.885-44.244,23.646-125.888,24.208-132.984
		C275.809,259.225,282.518,258.937,290.672,257.55z M120.655,450.426c0.003-0.044,0.004-0.089,0.006-0.133
		c0.003-0.001,0.009-0.003,0.013-0.005C120.667,450.334,120.662,450.38,120.655,450.426z M290.839,450.293
		c0.003,0.044,0.004,0.089,0.006,0.133c-0.007-0.046-0.012-0.092-0.019-0.138C290.829,450.289,290.835,450.292,290.839,450.293z
		 M201.881,474.508c-9.913,0-12.03-8.069-12.03-8.069c7.867,8.069,14.495,2.884,14.495,0.002c-5.13,0-5.906-8.071,1.643-8.071
		c6.599,0,8.069,5.072,8.069,8.069C214.058,469.436,211.09,474.508,201.881,474.508z M264.803,458.385
		c-0.018-0.046-0.035-0.09-0.053-0.135c-5.387,29.027-24.627,39.967-24.627,39.967c22.375-32.25,13.25-61.833,4.917-63.167
		c-3.167,6.667-14.333,7.5-14.333,7.5c16.5-21.167-3-34.333-3-34.333c1.5,8.333-5.5,12.5-5.5,12.5c3.5-19-9.39-22.439-16.457-23.169
		c-32.273-3.335-60.695,21.158-75.329,52.401c13.089-34.848,41.896-59.042,75.329-59.042
		C238.652,390.906,268.623,416.967,264.803,458.385z"/>
	<circle class="st2" cx="181.143" cy="131.8" r="3.667"/>
	<g>
		<path class="st2" d="M419.205,410.438c8.725,0,12.453,5.2,12.453,13.68v6.721c0,8.88-4.125,13.521-12.928,13.521h-5.473v22.08
			h-6.187v-56.001H419.205z M418.729,438.758c4.6,0,6.821-2.16,6.821-7.521v-7.439c0-5.12-1.824-7.681-6.345-7.681h-5.948v22.641
			H418.729z"/>
		<path class="st2" d="M452.04,410.438c8.725,0,12.373,4.479,12.373,12.8v4.561c0,6.16-2.142,10-6.9,11.52
			c5.076,1.521,6.979,5.681,6.979,11.681v8.721c0,2.479,0.08,4.8,1.111,6.72h-6.266c-0.714-1.6-1.031-3.04-1.031-6.8v-8.801
			c0-6.32-2.935-8.32-8.09-8.32h-4.362v23.921h-6.187v-56.001H452.04z M450.454,436.838c4.917,0,7.852-1.601,7.852-7.681v-5.359
			c0-5.04-1.824-7.681-6.424-7.681h-6.028v20.721H450.454z"/>
		<path class="st2" d="M473.614,423.957c0-8.56,4.204-14.08,12.69-14.08c8.566,0,12.77,5.521,12.77,14.08v28.961
			c0,8.48-4.203,14.08-12.77,14.08c-8.487,0-12.69-5.6-12.69-14.08V423.957z M479.721,453.238c0,5.12,2.142,8.08,6.583,8.08
			c4.521,0,6.583-2.96,6.583-8.08v-29.601c0-5.04-2.062-8.08-6.583-8.08c-4.441,0-6.583,3.04-6.583,8.08V453.238z"/>
		<path class="st2" d="M513.985,453.238c0,5.04,1.982,8.08,6.504,8.08c4.441,0,6.424-3.04,6.424-8.08v-42.801h5.79v42.48
			c0,8.48-3.886,14.16-12.452,14.16c-8.486,0-12.373-5.68-12.373-14.16v-42.48h6.107V453.238z"/>
		<path class="st2" d="M554.99,410.438c8.646,0,12.611,5.28,12.611,13.92v28.241c0,8.56-3.966,13.84-12.611,13.84h-13.008v-56.001
			H554.99z M554.911,460.759c4.441,0,6.583-2.801,6.583-7.921v-28.801c0-5.12-2.142-7.92-6.663-7.92h-6.662v44.642H554.911z"/>
		<path class="st2" d="M576.563,466.438v-56.001h6.187v50.321h15.862v5.68H576.563z"/>
		<path class="st2" d="M611.381,446.358l-11.739-35.921h6.425l8.646,27.521l8.725-27.521h5.869l-11.818,35.921v20.08h-6.106V446.358
			z"/>
		<path class="st2" d="M672.849,466.358h-5.948l-9.201-44.561v44.641h-5.394v-56.001h8.646l9.121,44.721l8.805-44.721h8.645v56.001
			h-5.869v-45.041L672.849,466.358z"/>
		<path class="st2" d="M703.305,455.158l-2.142,11.28h-5.711l10.628-56.001h8.963l10.628,56.001h-6.187l-2.141-11.28H703.305z
			 M704.098,449.798h12.373l-6.266-32.32L704.098,449.798z"/>
		<path class="st2" d="M746.691,410.438c8.645,0,12.61,5.28,12.61,13.92v28.241c0,8.56-3.966,13.84-12.61,13.84h-13.008v-56.001
			H746.691z M746.611,460.759c4.442,0,6.584-2.801,6.584-7.921v-28.801c0-5.12-2.142-7.92-6.663-7.92h-6.662v44.642H746.611z"/>
		<path class="st2" d="M788.012,435.237v5.601H774.45v19.921h16.656v5.68h-22.843v-56.001h22.843v5.68H774.45v19.12H788.012z"/>
		<path class="st2" d="M827.907,410.438c8.646,0,12.056,4.16,12.056,12.4v2.64c0,5.92-1.665,9.601-6.504,11.12
			c5.394,1.521,7.456,5.84,7.456,12v4.721c0,8.4-4.045,13.12-12.69,13.12h-12.77v-56.001H827.907z M826.4,434.197
			c4.917,0,7.456-1.6,7.456-7.439v-3.28c0-4.96-1.666-7.36-6.107-7.36h-6.107v18.08H826.4z M828.224,460.759
			c4.521,0,6.583-2.4,6.583-7.601v-4.96c0-6.24-2.459-8.32-7.772-8.32h-5.394v20.881H828.224z"/>
		<path class="st2" d="M858.364,446.358l-11.738-35.921h6.424l8.646,27.521l8.725-27.521h5.869l-11.817,35.921v20.08h-6.107V446.358
			z"/>
	</g>
	<g>
	</g>
	<g>
	</g>
	<g>
	</g>
	<g>
	</g>
	<g>
	</g>
	<g>
	</g>
	<g>
	</g>
	<g>
	</g>
	<g>
	</g>
	<g>
	</g>
	<g>
	</g>
	<g>
	</g>
	<g>
	</g>
	<g>
	</g>
	<g>
	</g>
</g>
</svg>
